<svg width="430" height="533" viewBox="0 0 430 533" fill="none" xmlns="http://www.w3.org/2000/svg">
<path opacity="0.18" d="M792.203 600C871.272 600.103 947.945 576.338 1009.21 532.739C1070.47 576.338 1147.14 600.103 1226.21 600C1416.14 600 1570.1 465.686 1570.1 300C1570.1 134.315 1416.14 0.000335708 1226.21 0.000335708C1147.14 -0.102925 1070.47 23.6622 1009.21 67.2616C947.945 23.6623 871.272 -0.10283 792.203 0.000335708C713.135 -0.10302 636.461 23.6621 575.198 67.2616C513.936 23.6625 437.263 -0.102658 358.195 0.000335708C279.127 -0.102658 202.454 23.6625 141.191 67.2616C79.9287 23.6625 3.25568 -0.102658 -75.8125 0.000335708C-154.881 -0.10302 -231.554 23.6621 -292.817 67.2616C-330.879 23.1214 -445.908 0.000300428 -510.114 0.000335708C-700.037 0.000335708 -854 134.315 -854 300C-854 465.686 -700.037 600 -510.114 600C-385.214 600 -367.295 579.769 -292.817 532.739C-231.554 576.338 -154.881 600.104 -75.8125 600C3.25574 600.103 79.9288 576.338 141.191 532.739C202.454 576.338 279.127 600.103 358.195 600C437.264 600.103 513.937 576.338 575.2 532.739C636.462 576.338 713.135 600.103 792.203 600Z" fill="white"/>
<path opacity="0.43" d="M649.385 530.573C684.766 561.81 729.001 578.906 774.648 579C827.498 578.935 878.17 556.185 915.545 515.735C952.973 475.227 974 420.287 974 363C974 305.713 952.973 250.773 915.545 210.265C878.17 169.815 827.498 147.065 774.648 147C729.001 147.094 684.766 164.19 649.385 195.427C613.828 164.035 569.331 146.925 523.444 147C477.557 146.926 433.06 164.036 397.503 195.429C361.947 164.036 317.449 146.926 271.562 147C225.676 146.926 181.178 164.036 145.622 195.429C110.065 164.036 65.5679 146.925 19.681 147C-26.5114 146.924 -71.2862 164.263 -106.948 196.038C-106.948 196.038 -180.49 147 -233.422 147C-286.353 147 -337.117 169.757 -374.545 210.265C-411.973 250.773 -433 305.713 -433 363C-433 420.287 -411.973 475.227 -374.545 515.735C-337.117 556.243 -286.353 579 -233.422 579C-171.889 579 -106.948 529.962 -106.948 529.962C-71.2862 561.737 -26.5114 579.076 19.681 579C65.5678 579.074 110.065 561.964 145.622 530.571C181.178 561.964 225.676 579.074 271.562 579C317.449 579.074 361.947 561.964 397.503 530.571C433.06 561.964 477.557 579.074 523.444 579C569.331 579.075 613.828 561.964 649.385 530.573Z" fill="white"/>
<path opacity="0.43" d="M365.419 599.077C385.645 616.452 410.766 625.773 436.556 625.482C466.415 625.046 494.872 611.816 515.683 588.689C536.524 565.53 547.99 534.343 547.558 501.989C547.126 469.636 534.832 438.766 513.38 416.171C491.959 393.608 463.159 381.142 433.299 381.504C407.51 381.901 382.647 391.89 362.893 409.798C342.567 392.338 317.298 383.01 291.373 383.398C265.448 383.702 240.436 393.702 220.584 411.699C200.259 394.238 174.989 384.91 149.065 385.298C123.139 385.602 98.1279 395.601 78.2758 413.599C57.9503 396.138 32.6811 386.81 6.75643 387.198C-19.342 387.503 -44.5082 397.634 -64.4169 415.848C-64.4169 415.848 -106.337 388.708 -136.242 389.107C-166.147 389.506 -194.656 402.742 -215.497 425.901C-236.338 449.061 -247.803 480.248 -247.371 512.601C-246.94 544.955 -234.646 575.825 -213.194 598.42C-191.742 621.015 -162.89 633.484 -132.985 633.085C-98.2198 632.621 -61.8993 604.436 -61.8993 604.436C-41.5114 622.113 -16.0838 631.568 10.0135 631.176C35.9393 630.872 60.9505 620.873 80.8026 602.875C101.128 620.337 126.397 629.664 152.322 629.276C178.248 628.972 203.259 618.973 223.111 600.975C243.436 618.437 268.706 627.765 294.63 627.376C320.556 627.073 345.567 617.074 365.419 599.077Z" fill="white"/>
</svg>
